<?xml version="1.0" encoding="UTF-8" standalone="no"?>
<svg
   xmlns:dc="http://purl.org/dc/elements/1.1/"
   xmlns:cc="http://creativecommons.org/ns#"
   xmlns:rdf="http://www.w3.org/1999/02/22-rdf-syntax-ns#"
   xmlns:svg="http://www.w3.org/2000/svg"
   xmlns="http://www.w3.org/2000/svg"
   xmlns:xlink="http://www.w3.org/1999/xlink"
   xmlns:sodipodi="http://sodipodi.sourceforge.net/DTD/sodipodi-0.dtd"
   xmlns:inkscape="http://www.inkscape.org/namespaces/inkscape"
   inkscape:version="1.0 (4035a4fb49, 2020-05-01)"
   sodipodi:docname="audiobook_ic.svg"
   id="svg18"
   version="1.1"
   viewBox="0 0 500 500"
   height="500px"
   width="500px">
  <metadata
     id="metadata22">
    <rdf:RDF>
      <cc:Work
         rdf:about="">
        <dc:format>image/svg+xml</dc:format>
        <dc:type
           rdf:resource="http://purl.org/dc/dcmitype/StillImage" />
        <dc:title>img-coverart</dc:title>
      </cc:Work>
    </rdf:RDF>
  </metadata>
  <sodipodi:namedview
     inkscape:current-layer="img-coverart"
     inkscape:window-maximized="1"
     inkscape:window-y="0"
     inkscape:window-x="36"
     inkscape:cy="250"
     inkscape:cx="224.67223"
     inkscape:zoom="1.678"
     showgrid="false"
     id="namedview20"
     inkscape:window-height="1052"
     inkscape:window-width="1884"
     inkscape:pageshadow="2"
     inkscape:pageopacity="0"
     guidetolerance="10"
     gridtolerance="10"
     objecttolerance="10"
     borderopacity="1"
     bordercolor="#666666"
     pagecolor="#ffffff" />
  <!-- Generator: Sketch 41.2 (35397) - http://www.bohemiancoding.com/sketch -->
  <title
     id="title2">img-coverart</title>
  <desc
     id="desc4">Created with Sketch.</desc>
  <defs
     id="defs7">
    <rect
       height="500"
       width="500"
       y="0"
       x="0"
       id="path-1" />
  </defs>
  <g
     fill-rule="evenodd"
     fill="none"
     stroke-width="1"
     stroke="none"
     id="Page-1">
    <g
       transform="translate(-87,-867)"
       id="Account-details:-membership-asin-doc">
      <g
         transform="translate(65,780)"
         id="Group">
        <g
           transform="translate(22,87)"
           id="img-coverart">
          <mask
             fill="#ffffff"
             id="mask-2">
            <use
               height="100%"
               width="100%"
               y="0"
               x="0"
               id="use9"
               xlink:href="#path-1" />
          </mask>
          <use
             style="display:none"
             height="100%"
             width="100%"
             y="0"
             x="0"
             xlink:href="#path-1"
             fill="#bbbbbb"
             id="mask" />
          <path
             inkscape:label="path4"
             d="m 214.37082,264.53208 c 6.60985,-4.63917 14.25912,-7.30598 22.42575,-7.30598 13.4323,0 25.48735,7.18787 33.76029,18.58502 l 17.75303,-11.0948 h 0.009 c -8.1619,-11.67587 -21.7076,-19.31963 -37.04159,-19.31963 -15.2513,0 -28.72848,7.56109 -36.90693,19.13539 z"
             id="path1095"
             fill="#ffffff"
             mask="url(#mask-2)"
             style="display:inline;fill:#98005d;fill-opacity:1"
             sodipodi:nodetypes="cscccscc" />
          <path
             inkscape:label="path3"
             sodipodi:nodetypes="cccscccsc"
             style="display:inline;fill:#f15c22;fill-opacity:1"
             mask="url(#mask-2)"
             fill="#ffffff"
             id="icn-audible"
             d="m 300.33849,257.1987 18.40503,-11.50108 h 0.0142 c -14.51897,-21.79512 -39.32124,-36.1567 -67.48041,-36.1567 -28.13082,0 -52.91419,14.33796 -67.43789,36.10237 l 0.11339,0.0118 c 0.98038,-0.89287 1.97728,-1.76921 3.00254,-2.62193 35.07848,-29.07275 85.713,-22.69035 113.38317,14.16553 z" />
          <path
             inkscape:label="path2"
             d="m 166.78939,213.90136 c 51.46607,-40.73681 124.29956,-29.82154 163.08929,24.2706 l 0.25749,0.39684 19.04996,-11.8672 c -20.8666,-31.92382 -56.92309,-53.01739 -97.90743,-53.01739 -40.41265,0 -76.80696,20.88807 -97.86255,52.94888 3.86716,-4.07226 8.88006,-9.1744 13.37324,-12.73173 z"
             id="path849"
             fill="#ffffff"
             mask="url(#mask-2)"
             style="display:inline;fill:#f0b310;fill-opacity:1"
             sodipodi:nodetypes="ccccscc" />
          <path
             inkscape:label="path1"
             sodipodi:nodetypes="ccccccc"
             d="M 251.3146,307.19118 126.31579,229.09063 v 21.09593 l 124.99881,78.10291 125.00119,-78.10291 v -21.09593 z"
             id="path847"
             fill="#ffffff"
             mask="url(#mask-2)"
             style="display:inline;mix-blend-mode:normal" />
        </g>
      </g>
    </g>
  </g>
</svg>
